<?xml version="1.0" encoding="UTF-8"?><svg id="Layer_2" xmlns="http://www.w3.org/2000/svg" viewBox="0 0 303.21 400"><defs><style>.cls-1{fill:#231f20;}.cls-1,.cls-2,.cls-3{fill-rule:evenodd;}.cls-2{fill:#a5cd39;}.cls-3{fill:#ec1c24;}</style></defs><g id="Layer_1-2"><g><path class="cls-2" d="m39.29.39C41.8.03,44.34-.03,46.87.01,117.35.01,187.82.02,258.3,0c14.67.17,28.92,8,37.1,20.15,3.33,4.9,5.71,10.46,6.86,16.28.88,4.32.88,8.76.87,13.15v198.31c-.05,6.18.3,12.45-1.08,18.53-2.5,11.51-9.75,21.85-19.61,28.26-7.88,5.2-17.41,7.86-26.84,7.44-70.64,0-141.27,0-211.91,0-15.53-.34-30.38-9.55-37.87-23.11-2.73-4.84-4.53-10.19-5.33-15.69-.65-4.51-.47-9.06-.49-13.6V52.76c.03-5.73-.27-11.55,1.03-17.18,2.15-10.21,8.1-19.53,16.32-25.93C23.68,4.69,31.32,1.43,39.29.39Z"/><path class="cls-3" d="m42.91,37.83c13.32-.02,26.64,0,39.96,0,.04,31.33-.05,62.65.05,93.98,1.23-1.21,2.05-2.75,3.19-4.03,8.05-9.55,19.94-15.38,32.19-17.21,10.78-1.58,22.1-.93,32.23,3.3,12.1,5.08,21.91,14.75,28.4,26.03,4.77,8.34,7.69,17.62,9.72,26.97,3.74,17.54,2.37,36.01-3.29,52.99-2.68,8.55-6.87,16.65-12.58,23.58-4.77,5.66-10.2,10.94-16.76,14.5-8.39,4.67-18.12,6.49-27.65,6.4-9.15-.09-18.53-.72-27.11-4.17-3.41-1.46-6.68-3.24-9.76-5.3-2.8-1.96-5.57-4.12-7.42-7.05-1.29-2-2.7-3.96-3.42-6.25.44,4.7-.58,9.7-3.64,13.4-3.64,4.46-9.23,6.75-14.72,7.95-6.33,1.38-12.87,1.52-19.31,1.04-.19-23.3-.03-46.61-.08-69.91,0-52.07,0-104.14,0-156.21Zm67.55,102.55c-7.73,1.14-14.41,5.98-19.34,11.84-5.2,6.19-7.72,14.09-9.39,21.87-1.82,8.48-1.92,17.33-.06,25.81,1.83,8.53,4.82,17.13,10.81,23.67,4.76,5.74,11.77,9.46,19.17,10.3,7.29.86,15.18-.14,21.26-4.51,4.87-3.41,8.04-8.64,10.59-13.9,4.31-9.22,5.81-19.52,5.65-29.63-.12-7.64-1.24-15.28-3.5-22.58-2.36-6.53-6.01-12.75-11.3-17.33-6.59-5.37-15.64-6.92-23.88-5.56ZM0,324.09c3.66-.02,7.32,0,10.98,0,0,8.47,0,16.93,0,25.4,2.11-3.26,5.9-4.9,9.58-5.64,4.84-.88,10.31.34,13.72,4.04,3.25,3.14,5,7.49,5.8,11.87,1.1,6.22.19,12.84-2.93,18.37-2.25,3.88-6.1,7-10.62,7.66-4.05.53-8.43.33-12.03-1.8-1.73-.81-3.13-2.18-4.03-3.86-.13,1.57-.68,3.19-2.04,4.12-2.44,1.71-5.56,1.71-8.41,1.65-.06-20.6,0-41.19-.03-61.79Zm17.63,28.21c-3.75,1.09-6.03,4.72-6.74,8.39-1.12,4.59-.31,9.72,2.43,13.6,2.73,3.77,8.86,4.61,12.23,1.27,3.54-3.85,4.17-9.56,3.28-14.52-.36-2.93-1.81-5.76-4.15-7.59-1.96-1.55-4.7-1.83-7.05-1.14Zm25.73-28.22c3.66,0,7.32,0,10.98,0,0,3.05,0,6.11,0,9.17-3.66,0-7.32,0-10.97,0-.02-3.06,0-6.12,0-9.17Zm28.33,19.73c5.51-1.03,12.19.95,14.71,6.33.39-1.7,1.49-3.17,3.05-3.98,2.29-1.29,5-1.44,7.57-1.36,0,12.07,0,24.14,0,36.21.1,3.21-.43,6.47-1.65,9.45-2.5,5.44-8.39,8.63-14.15,9.28-5.7.66-11.98.25-16.78-3.23-3.17-2.06-5.3-5.61-5.57-9.39,3.64.02,7.28-.01,10.92.02.48,1.55,1.33,3.07,2.77,3.93,2.49,1.43,5.56,1.6,8.32.99,3.21-.72,5.08-4,5.52-7.05.21-2.54,0-5.08.11-7.62-1.68,3.13-4.85,5.33-8.34,5.93-4.36.74-9.12.3-12.89-2.18-4.39-2.89-6.85-8.07-7.35-13.19-.41-4.61-.44-9.46,1.44-13.79,2.11-5.14,6.64-9.59,12.31-10.35Zm3.44,8.46c-2.17.54-4.02,2.1-4.99,4.11-1.68,2.93-1.5,6.46-1.36,9.72.37,3.82,2.52,8.21,6.64,8.97,3.7.91,7.83-.96,9.61-4.32,2.07-4.75,2-10.57-.55-15.12-1.8-3.18-5.99-4.29-9.35-3.36Zm-31.77-7.47c3.66,0,7.32-.01,10.98,0,0,13.73,0,27.46,0,41.19-3.66.01-7.33,0-10.98,0v-41.19Z"/><path class="cls-1" d="m134.37,37.82c8.07,0,16.15,0,24.22,0,0,24.24,0,48.47,0,72.71-7.19-4.6-15.62-7.57-24.23-7.42,0-21.76,0-43.53,0-65.29Zm33.45,79.7c8.6-4.99,18.5-7.83,28.46-7.83,14.76-.24,29.33,5.73,40.15,15.67,6.71,6.09,12.03,13.67,15.64,21.97,6.77,16.25,9.54,34.21,7.4,51.72-1.07,8.86-3.31,17.56-6.48,25.89-2.9,7.51-7.17,14.49-12.51,20.51-4.58,5.14-9.81,9.84-15.98,12.98-8.21,4.34-17.6,5.98-26.83,5.89-11.21-.05-22.93-1.17-32.77-7.01,5.58-4.62,10.61-9.92,14.8-15.84,7.86,2.8,16.66,3.21,24.69.81,6.43-1.9,12.06-6.02,16.23-11.23,4.71-5.87,7.73-12.92,9.72-20.13,2.74-10.17,3.49-20.81,2.73-31.3-.76-9.64-2.81-19.29-7.03-28.04-3.31-6.78-8.21-12.99-14.81-16.82-9.14-5.33-20.6-5.69-30.51-2.45-3.69-5.42-8.04-10.39-12.9-14.79Zm-65.6,206.56h7.02c0,8.61.02,17.22-.01,25.84,1.62-2.56,4.02-4.63,6.92-5.59,5.51-1.8,12.07-.43,16.15,3.78,3.78,3.89,5.27,9.43,5.46,14.73.07,5.63-.93,11.49-3.98,16.32-3.93,6.56-13,9.08-19.87,5.95-2.21-1.06-3.86-3.01-5.09-5.08.07,1.47-.11,3.12-1.29,4.16-1.4,1.38-3.51.96-5.29,1.01v-61.12Zm15.03,25.95c-2.41.44-4.48,2.03-5.75,4.1-1.91,3.03-2.42,6.69-2.64,10.2-.26,3.74.02,7.76,2.02,11.04,1.89,3.21,5.63,5.18,9.35,4.98,3.33.02,6.41-2.01,8.05-4.84,2.05-3.52,2.51-7.72,2.45-11.71-.14-3.7-.6-7.72-3.06-10.67-2.47-2.99-6.76-3.83-10.43-3.1Zm98.72-25.95c2.19-.01,4.38,0,6.57,0,.01,12.91,0,25.82,0,38.73,4.78-4.7,9.59-9.35,14.38-14.02,1.54-1.65,3.67-2.97,6-2.88,1.52-.08,2.78.87,3.93,1.75-4.44,4.52-9.07,8.86-13.61,13.28,5.41,8.53,10.94,16.99,16.37,25.5-2.95,0-5.9,0-8.84,0-4.18-6.81-8.38-13.62-12.57-20.43-1.92,1.66-3.81,3.37-5.69,5.08.02,5.11,0,10.23,0,15.34h-6.57c0-20.79,0-41.57,0-62.37Zm73.81,0c2.26,0,4.52,0,6.78,0,0,7.07,0,14.14,0,21.21,1.89.22,3.94.64,5.28,2.11.96.95,1.21,2.33,1.34,3.62-2.21,0-4.42,0-6.63,0,0,8.65,0,17.3,0,25.95-.02,1.07.25,2.37,1.32,2.89,1.62.82,3.5.36,5.24.46.01,1.82.01,3.65,0,5.48-3.28.31-6.81,1.29-9.91-.35-2.52-1.2-3.34-4.17-3.42-6.73-.03-9.23,0-18.47-.01-27.71-1.85,0-3.7,0-5.55,0v-5.66c1.85,0,3.69,0,5.54,0,0-7.09,0-14.19,0-21.28Zm-144.07,23.13c3.7-3.14,8.8-3.71,13.47-3.64,4.02.19,8.29,1.1,11.33,3.92,1.79,1.77,2.85,4.27,2.8,6.81-.01,7.56,0,15.11,0,22.67.02,1.14-.04,2.64,1.19,3.22,1.08.32,2.23.04,3.34.02v5c-2.71,1.01-5.93,1.23-8.48-.3-1.76-1.04-2.23-3.18-2.44-5.05-2.49,2.8-5.69,5.1-9.39,5.96-4.7,1.15-10.13.83-14-2.35-5.88-4.87-5.14-15.58,1.54-19.41,4.1-2.44,9.01-2.28,13.58-2.99,2.07-.37,4.27-.26,6.25-1.04,1.92-1.13,2.05-3.72,1.7-5.68-.47-2.72-3.12-4.38-5.67-4.8-3.14-.53-6.69-.7-9.48,1.09-1.98,1.23-2.54,3.77-4.51,4.98-1.53,1.04-3.44,1.34-5.25,1.1.22-3.49,1.25-7.17,4.03-9.5Zm12.03,19.57c-3.05.49-6.43.54-8.97,2.52-2.58,1.99-2.41,5.92-.98,8.54,1.92,2.94,5.91,3.05,9.02,2.47,4.03-.81,8.29-3.26,9.5-7.43.43-2.7.07-5.46.2-8.18-2.74,1.31-5.82,1.56-8.77,2.08Zm25.74-19.4c3.11-2.76,7.38-3.74,11.44-3.83,3.57.01,7.3.6,10.31,2.64,3.03,2,5.01,5.42,5.35,9.03-2.05.38-4.22.05-5.94-1.15-1.9-1.07-2.94-3.34-5.18-3.83-3.47-.92-7.43-1.06-10.65.72-2.09,1.14-3.08,3.92-2.09,6.09.91,1.63,2.83,2.19,4.49,2.73,3.66,1.03,7.34,1.96,11.02,2.92,2.92.85,6.03,1.96,7.99,4.44,1.85,2.37,1.95,5.57,1.5,8.42-.67,3.87-3.41,7.19-6.91,8.89-4.3,2.19-9.31,2.26-13.99,1.58-3.51-.55-7.12-1.91-9.41-4.74-2.16-2.55-2.85-5.97-3.05-9.21,2.26-.03,4.52,0,6.78-.02.17,2.24.8,4.67,2.65,6.12,2.62,2.11,6.19,2.28,9.41,2.13,2.47-.21,5.15-.98,6.69-3.06,1.04-1.33,1.25-3.16.86-4.75-.62-1.88-2.63-2.72-4.36-3.29-4.36-1.34-8.87-2.14-13.22-3.48-3.13-.98-6.16-3.19-7.05-6.48-1.05-4.16.11-8.97,3.38-11.87Zm68.95,1.92c3.04-3.49,7.62-5.35,12.18-5.65,4.93-.5,10.32.85,13.7,4.66,4.63,5.02,5.59,12.22,5.71,18.78-9.87,0-19.73,0-29.6,0,.08,3.52.72,7.33,3.2,10,2.19,2.45,5.63,3.38,8.82,3.25,4.7.05,9.24-3.42,10.21-8.06,2.26.01,4.53,0,6.79,0-.79,4.62-3.53,8.92-7.51,11.42-3.4,2.4-7.74,2.8-11.78,2.67-4.64-.17-9.27-2.14-12.29-5.72-3.43-4.01-4.85-9.41-4.77-14.61-.07-5.93,1.34-12.21,5.34-16.76Zm6.04,3.36c-3.18,2.83-4.37,7.24-4.03,11.38,2.01-2.22,5.11-2.61,7.93-2.39,4.81,0,9.62.01,14.43,0-.28-3-.92-6.14-2.91-8.5-3.8-4.36-11.3-4.46-15.43-.48Z"/></g></g></svg>