<svg width="384" height="400" viewBox="0 0 384 400" fill="none" xmlns="http://www.w3.org/2000/svg">
<path d="M63.7983 225.708C105.943 151.921 148.085 78.134 190.235 4.35156C182.362 54.8701 174.458 105.382 166.585 155.9C166.529 156.429 166.021 156.725 165.715 157.113C111.911 214.72 58.0958 272.314 4.29688 329.925C24.0899 295.162 43.9747 260.453 63.7983 225.708Z" fill="#062F62"/>
<path d="M194.43 4.33203C256.483 112.873 318.474 221.449 380.52 329.995C355.796 303.619 331.133 277.183 306.425 250.789C277.066 219.387 247.702 187.986 218.34 156.586C218.039 156.184 218.091 155.638 217.99 155.173C210.145 104.892 202.274 54.613 194.43 4.33203Z" fill="#062F62"/>
<path d="M104.194 235.514C105.802 233.771 107.296 231.916 108.968 230.239C119.458 230.188 129.953 230.223 140.446 230.221C122.294 263.483 104.048 296.694 85.8989 329.957C63.9683 329.957 42.04 329.967 20.1094 329.955C48.147 298.482 76.1635 266.992 104.194 235.514Z" fill="#062F62"/>
<path d="M150.837 230.214C169.149 230.218 187.458 230.202 205.767 230.218C207.387 241.283 209.029 252.342 210.644 263.406C204.587 263.411 198.532 263.413 192.474 263.411C192.472 285.593 192.474 307.775 192.472 329.96C173.288 329.964 154.104 329.948 134.922 329.969C137.699 320.412 140.615 310.896 143.446 301.355C147.218 288.772 150.962 276.182 154.746 263.604C148.549 263.608 142.355 263.604 136.159 263.608C141.055 252.478 145.941 241.344 150.837 230.214Z" fill="#062F62"/>
<path d="M224.023 230.722C226.033 229.892 228.225 230.28 230.332 230.216C245.537 230.211 260.742 230.223 275.95 230.209C284.914 240.224 293.826 250.294 302.786 260.316C290.384 260.321 277.979 260.307 265.577 260.326C263.122 260.382 261.278 263.312 262.447 265.525C266.21 272.579 270.045 279.599 273.826 286.646C275.303 289.918 278.718 292.156 282.306 292.21C296.963 292.213 311.621 292.21 326.275 292.21C327.884 292.236 329.497 292.159 331.103 292.243C342.273 304.77 353.379 317.36 364.516 329.918C327.47 329.927 290.426 329.925 253.38 329.92C251.74 329.878 250.085 330.117 248.462 329.795C244.507 329.181 240.949 326.512 239.244 322.893C238.405 321.257 238.163 319.415 237.681 317.661C231.291 292.029 224.869 266.402 218.496 240.765C217.53 236.657 220.037 232.107 224.023 230.722Z" fill="#062F62"/>
<path d="M101.46 358.358C104.858 355.425 109.401 353.655 113.923 354.132C116.738 354.363 119.447 355.482 121.664 357.224C122.356 357.73 123.35 358.353 124.176 357.768C125.236 356.876 124.914 355.209 125.946 354.294C126.259 354.482 126.713 354.621 126.645 355.089C126.718 359.708 126.701 364.333 126.873 368.949C126.894 369.591 126.852 370.245 126.619 370.856C126.292 370.753 125.843 370.725 125.768 370.313C124.989 368.126 124.39 365.862 123.362 363.771C122.445 361.942 121.455 360.117 120.065 358.6C118.485 356.834 116.322 355.508 113.932 355.273C110.819 354.981 107.296 355.893 105.401 358.548C104.028 360.432 103.482 362.748 103.019 364.992C102.417 368.479 102.245 372.02 102.078 375.552C102.031 379.94 102.092 384.467 103.694 388.62C104.587 390.934 106.097 393.137 108.35 394.297C110.788 395.574 113.683 395.416 116.298 394.847C119.355 394.193 122.13 392.267 123.71 389.556C125.309 386.972 125.777 383.9 125.939 380.919C126.483 380.78 127.04 380.808 127.588 380.919C127.665 381.236 127.847 381.547 127.783 381.895C127.59 384.056 127.188 386.21 126.447 388.256C125.1 392.086 121.587 394.943 117.671 395.851C114.908 396.479 111.983 396.832 109.196 396.138C105.904 395.345 102.866 393.662 100.284 391.491C99.4045 390.734 98.5673 389.902 97.9912 388.886C96.9706 387.143 95.8536 385.441 95.127 383.545C93.1728 378.553 93.1869 372.825 95.1693 367.844C96.5567 364.288 98.6661 360.975 101.46 358.358Z" fill="#062F62"/>
<path d="M355.198 354.481C356.07 354.422 356.943 354.231 357.822 354.335C358.379 354.438 358.758 354.979 358.723 355.539C358.742 367.142 358.73 378.746 358.727 390.349C358.683 391.541 358.643 393.042 359.795 393.763C361.206 394.471 362.854 394.293 364.385 394.318C364.651 394.683 364.703 395.334 364.117 395.367C360.599 395.598 357.074 395.732 353.554 395.906C352.907 395.976 352.08 395.755 351.943 395.029C351.837 393.86 351.976 392.682 351.889 391.515C351.779 391.36 351.668 391.214 351.558 391.08C350.767 391.967 350.05 392.933 349.103 393.669C346.664 395.708 343.273 396.55 340.169 395.831C336.794 395.109 333.968 392.698 332.282 389.747C330.02 385.801 329.429 380.903 330.777 376.552C331.946 372.846 334.483 369.54 337.9 367.649C340.39 366.271 343.419 365.686 346.184 366.518C348.512 367.174 350.33 368.903 351.692 370.836C352.058 370.267 351.856 369.578 351.88 368.952C351.854 365.66 351.882 362.368 351.877 359.076C351.896 358.01 351.219 356.947 350.21 356.581C348.773 356.047 347.214 356.247 345.721 356.096C345.733 355.722 345.601 355.236 346.078 355.118C349.119 354.906 352.157 354.678 355.198 354.481ZM343.059 367.659C341.267 368.179 340.03 369.747 339.311 371.395C337.994 374.394 337.801 377.724 337.702 380.952C337.766 383.24 337.846 385.547 338.335 387.793C338.732 389.566 339.353 391.374 340.625 392.724C341.996 394.208 344.237 394.77 346.168 394.229C347.414 393.839 348.482 392.976 349.222 391.91C350.803 389.712 351.435 386.996 351.746 384.348C352.094 380.731 351.964 377.002 350.838 373.524C350.175 371.591 349.18 369.651 347.494 368.421C346.243 367.485 344.55 367.196 343.059 367.659Z" fill="#062F62"/>
<path d="M194.4 354.883C196.61 354.21 199.145 355.849 199.39 358.154C199.799 360.437 197.819 362.723 195.512 362.688C193.494 362.772 191.629 361.091 191.493 359.08C191.272 357.213 192.584 355.337 194.4 354.883Z" fill="#062F62"/>
<path d="M271.523 354.876C273.971 354.144 276.682 356.282 276.492 358.838C276.501 361.241 274.011 363.177 271.683 362.605C269.703 362.215 268.268 360.172 268.593 358.175C268.762 356.611 270.001 355.247 271.523 354.876Z" fill="#062F62"/>
<path d="M289.13 355.543C289.194 354.772 290.506 354.798 290.57 355.562C290.577 359.005 290.56 362.452 290.567 365.895C290.473 366.405 290.934 366.866 291.442 366.833C293.881 366.875 296.324 366.791 298.762 366.868C299.487 366.922 299.597 367.992 298.995 368.307C296.557 368.3 294.116 368.26 291.679 368.305C290.967 368.267 290.494 368.987 290.572 369.648C290.558 376.705 290.577 383.764 290.565 390.824C290.515 392.136 291.014 393.622 292.256 394.247C294.05 395.117 296.441 394.661 297.683 393.062C298.995 391.369 299.329 389.135 299.322 387.049C299.266 386.659 299.473 386.332 299.651 386.012C299.995 386.066 300.47 385.928 300.686 386.306C301.003 386.722 300.806 387.268 300.796 387.75C300.608 390.341 299.842 393.076 297.909 394.915C296.587 396.223 294.701 396.818 292.874 396.846C290.713 396.888 288.463 396.601 286.57 395.496C284.766 394.464 283.529 392.446 283.562 390.353C283.569 383.611 283.564 376.869 283.567 370.13C283.503 369.549 283.585 368.804 283.059 368.423C282.374 368.15 281.601 368.331 280.883 368.286C280.075 368.216 279.169 368.543 278.464 368.03C278.44 367.527 278.558 366.805 279.219 366.852C282.612 367.148 285.772 364.867 287.27 361.937C288.251 359.931 288.792 357.739 289.13 355.543Z" fill="#062F62"/>
<path d="M50.6297 355.556C62.371 355.558 74.1124 355.551 85.8537 355.558C85.8302 360.915 85.889 366.272 85.8255 371.626C85.8749 372.374 84.9248 372.522 84.4921 372.045C83.9089 368.113 82.6861 364.247 80.6473 360.823C79.7138 359.309 78.4463 357.801 76.6473 357.355C75.2975 357.058 73.9078 356.901 72.5298 356.992C72.0218 357.347 71.9724 358.044 71.9701 358.615C71.9842 369.585 71.9724 380.557 71.9748 391.527C71.9301 392.466 72.4333 393.43 73.3316 393.787C75.3375 394.634 77.588 394.333 79.6714 394.808C79.7702 395.327 79.5562 395.96 78.9048 395.845C71.6903 395.861 64.4733 395.84 57.2587 395.857C56.8919 395.828 56.4169 395.899 56.1982 395.527C56.2052 395.337 56.2217 394.951 56.2288 394.761C58.5639 394.373 61.0448 394.349 63.187 393.218C63.8219 392.879 64.5744 392.364 64.5392 391.556C64.5462 380.419 64.5415 369.279 64.5415 358.142C64.5791 357.672 64.4051 357.023 63.8431 356.988C62.0935 356.877 60.2217 357.03 58.6861 357.952C56.7602 359.269 55.5633 361.364 54.5592 363.417C53.2399 366.095 52.5509 369.021 51.9372 371.925C51.7091 372.503 51.0154 372.357 50.625 372.038C50.6297 366.542 50.6274 361.049 50.6297 355.556Z" fill="#062F62"/>
<path d="M20.2754 356.781C20.219 356.363 20.2025 355.718 20.7928 355.758C27.3865 355.749 33.9827 355.747 40.5788 355.756C41.1714 355.709 41.1337 356.36 41.0938 356.774C39.2713 357.202 37.2889 357.04 35.5676 357.875C34.8527 358.216 34.3824 358.992 34.4483 359.791C34.4506 370.456 34.4436 381.118 34.4506 391.782C34.3848 392.711 35.0902 393.501 35.9321 393.795C37.4771 394.343 39.142 394.411 40.7575 394.618C41.1432 394.733 41.1996 395.166 41.0726 395.504C40.781 395.876 40.2754 395.782 39.8616 395.812C33.5876 395.794 27.3136 395.817 21.0397 395.798C20.4683 395.885 20.0755 395.382 20.2684 394.848C20.6587 394.437 21.2772 394.587 21.7804 394.488C23.0597 394.312 24.3836 394.225 25.5899 393.729C26.3754 393.421 26.9538 392.635 26.9186 391.78C26.928 381.11 26.9209 370.441 26.9209 359.775C26.9821 358.851 26.3377 358.025 25.4935 357.722C23.8239 357.082 21.9991 357.155 20.2754 356.781Z" fill="#062F62"/>
<path d="M150.194 355.832C157.15 355.731 164.115 355.814 171.073 355.79C171.722 355.614 172.091 356.625 171.496 356.907C169.521 357.208 167.428 357.069 165.531 357.794C164.524 358.146 163.986 359.216 164.061 360.244C164.066 370.68 164.044 381.119 164.068 391.555C163.988 392.66 164.773 393.674 165.829 393.956C167.692 394.485 169.665 394.706 171.588 394.4C174.257 394.071 177.145 393.554 179.163 391.621C182.055 388.844 183.153 384.797 183.772 380.961C183.885 380.441 183.842 379.628 184.477 379.451C185.128 379.625 185.187 380.385 185.185 380.945C185.185 385.575 185.183 390.205 185.187 394.838C185.274 395.27 184.959 395.781 184.491 395.785C173.752 395.823 163.01 395.872 152.268 395.854C151.572 395.814 150.85 395.952 150.175 395.762C149.662 395.527 149.855 394.687 150.389 394.671C152.009 394.426 153.709 394.436 155.247 393.808C156.153 393.453 156.71 392.5 156.646 391.541C156.646 381.034 156.642 370.527 156.646 360.02C156.708 358.998 156.007 358.045 155.047 357.725C153.552 357.227 151.957 357.154 150.405 356.959C149.81 356.933 149.705 356.098 150.194 355.832Z" fill="#062F62"/>
<path d="M223.403 368.144C224.887 367.105 226.634 366.364 228.466 366.31C230.627 366.211 232.92 366.55 234.703 367.862C236.156 368.927 237.162 370.522 237.724 372.217C237.858 372.638 238.077 373.024 238.326 373.393C239.025 372.713 239.26 371.726 239.895 371.002C241.19 369.445 242.735 368.057 244.574 367.176C246.78 366.047 249.393 366.129 251.756 366.642C255.004 367.338 257.781 370.287 257.863 373.671C257.969 375.545 257.837 377.421 257.842 379.298C257.626 383.373 257.717 387.46 257.506 391.535C257.437 392.429 257.705 393.447 258.587 393.861C259.914 394.47 261.412 394.545 262.834 394.806C262.907 395.131 262.898 395.465 262.827 395.796C259.598 395.919 256.365 395.815 253.136 395.85C250.376 395.815 247.613 395.916 244.857 395.796C244.774 395.462 244.772 395.129 244.859 394.806C246.258 394.571 247.7 394.47 249.035 393.962C249.821 393.652 250.343 392.843 250.293 391.999C250.355 386.357 250.291 380.716 250.324 375.077C250.47 373.518 250.432 371.872 249.762 370.43C249.238 369.294 248.052 368.504 246.797 368.516C244.951 368.436 243.236 369.44 242.035 370.776C240.045 373.003 238.855 375.858 238.399 378.79C237.955 380.732 238.115 382.729 238.089 384.704C238.096 387.143 238.072 389.584 238.096 392.024C238.054 392.871 238.604 393.659 239.384 393.972C240.619 394.468 241.971 394.512 243.255 394.813C243.627 395.018 243.62 395.575 243.239 395.775C242.785 395.883 242.317 395.839 241.858 395.85C236.6 395.834 231.342 395.862 226.084 395.843C225.529 395.992 225.028 395.305 225.449 394.872C226.966 394.392 228.723 394.581 230.098 393.678C231.091 392.979 230.881 391.639 230.893 390.59C230.902 384.946 230.86 379.303 230.921 373.661C230.808 372.097 230.568 370.331 229.346 369.219C228.403 368.356 226.994 368.396 225.844 368.742C224.139 369.226 222.792 370.496 221.79 371.909C220.558 373.701 219.655 375.733 219.297 377.887C218.376 382.059 218.815 386.348 218.712 390.581C218.71 391.672 218.543 393.099 219.638 393.758C220.958 394.482 222.519 394.498 223.965 394.799C224.024 394.905 224.137 395.121 224.193 395.227C224.142 395.368 224.036 395.651 223.984 395.792C221.553 395.923 219.114 395.815 216.68 395.85C213.071 395.834 209.459 395.886 205.851 395.827C205.242 395.81 205.259 395.1 205.576 394.755C207.079 394.623 208.614 394.51 210.058 394.04C210.926 393.776 211.587 392.937 211.509 392.013C211.516 385.022 211.523 378.028 211.509 371.037C211.537 370.11 210.806 369.334 209.952 369.09C208.713 368.718 207.415 368.598 206.136 368.438C205.334 368.321 205.654 367.096 206.324 367.082C209.858 366.95 213.39 366.755 216.922 366.564C217.729 366.475 218.684 366.924 218.757 367.822C218.931 369.438 218.566 371.063 218.738 372.685C219.02 373.271 219.464 372.695 219.61 372.337C220.417 370.595 221.879 369.264 223.403 368.144Z" fill="#062F62"/>
<path d="M313.635 366.424C317.511 365.888 321.741 366.942 324.605 369.691C327.265 372.27 328.227 376.155 328.046 379.762C328.067 380.2 327.672 380.578 327.232 380.487C321.353 380.458 315.477 380.522 309.6 380.534C309.01 380.536 308.819 381.19 308.81 381.674C308.605 384.712 308.739 387.887 309.976 390.713C310.804 392.628 312.476 394.208 314.534 394.683C317.708 395.398 321.327 394.549 323.597 392.141C325.033 390.636 325.936 388.672 326.315 386.638C326.376 386.203 326.717 385.709 327.223 385.827C328.027 385.942 327.782 386.942 327.752 387.518C327.112 390.925 324.65 393.904 321.45 395.228C317.494 396.882 312.756 396.825 308.975 394.73C304.742 392.472 301.816 388.033 301.283 383.28C300.22 375.631 305.993 367.68 313.635 366.424ZM314.388 367.682C313.142 367.95 312.015 368.712 311.291 369.759C309.671 372.054 309.384 374.937 309.036 377.643C308.909 378.323 309.214 379.313 310.063 379.254C313.043 379.285 316.022 379.264 319.002 379.261C319.825 379.287 320.871 379.099 321.158 378.194C321.537 376.882 321.513 375.492 321.433 374.142C321.334 372.27 320.949 370.238 319.561 368.875C318.207 367.56 316.163 367.384 314.388 367.682Z" fill="#062F62"/>
<path d="M194.605 366.98C195.783 366.971 196.954 366.724 198.13 366.818C198.81 366.917 199.123 367.606 199.057 368.236C199.064 376.243 199.043 384.253 199.061 392.26C199.029 393.066 199.666 393.732 200.402 393.967C201.867 394.442 203.424 394.524 204.931 394.809C205.446 395.002 205.267 395.891 204.708 395.834C198.749 395.869 192.788 395.855 186.831 395.839C186.243 395.916 186.229 395.246 186.349 394.858C187.743 394.465 189.154 394.124 190.561 393.769C191.544 393.515 192.261 392.572 192.19 391.55C192.204 384.793 192.195 378.037 192.188 371.284C192.235 370.374 191.663 369.511 190.817 369.189C189.481 368.702 188.044 368.631 186.65 368.429C186.234 368.311 186.349 367.841 186.29 367.526C186.911 367.284 187.581 367.284 188.24 367.274C190.363 367.23 192.479 367.018 194.605 366.98Z" fill="#062F62"/>
<path d="M267.023 367.214C269.527 367.031 272.041 367.005 274.543 366.793C275.197 366.687 276.102 367.007 276.081 367.797C276.109 375.87 276.081 383.945 276.097 392.018C276.055 392.834 276.544 393.613 277.313 393.907C278.825 394.454 280.455 394.506 282.023 394.812C282.604 395.106 282.214 395.997 281.605 395.844C275.717 395.849 269.828 395.863 263.942 395.84C263.408 395.929 263.11 395.172 263.545 394.885C264.953 394.313 266.491 394.161 267.921 393.66C268.796 393.359 269.294 392.449 269.273 391.557C269.28 384.797 269.28 378.038 269.273 371.277C269.318 370.323 268.683 369.436 267.782 369.14C266.48 368.717 265.102 368.599 263.747 368.446C263.336 368.31 263.427 367.83 263.385 367.506C264.563 367.153 265.812 367.325 267.023 367.214Z" fill="#062F62"/>
</svg>
