<?xml version="1.0" encoding="UTF-8"?>
<svg id="Layer_2" data-name="Layer 2" xmlns="http://www.w3.org/2000/svg" viewBox="0 0 396.71 260.2">
  <defs>
    <style>
      .cls-1 {
        fill-rule: evenodd;
      }

      .cls-1, .cls-2 {
        fill: #3562aa;
        stroke-width: 0px;
      }
    </style>
  </defs>
  <g id="Layer_1-2" data-name="Layer 1">
    <g>
      <g>
        <polyline class="cls-1" points="103.58 120.32 149.87 120.32 149.87 134.4 136.59 134.4 136.59 168.24 117.3 168.24 117.3 134.4 103.58 134.4 103.58 120.32"/>
        <polyline class="cls-1" points="173.31 139.68 163.57 168.24 145.04 168.24 163.21 120.32 183.32 120.32 201.93 168.24 183.18 168.24 173.31 139.68"/>
        <polyline class="cls-1" points="197.51 120.32 243.79 120.32 243.79 134.4 230.52 134.4 230.52 168.24 211.23 168.24 211.23 134.4 197.51 134.4 197.51 120.32"/>
        <polyline class="cls-1" points="267.23 139.68 257.49 168.24 238.97 168.24 257.13 120.32 277.25 120.32 295.85 168.24 277.1 168.24 267.23 139.68"/>
        <path class="cls-1" d="M267.92,32.3c-1.73-3.39-4.01-6.66-6.84-9.71-6.36-6.87-15.34-12.58-25.97-16.52-10.71-3.97-22.93-6.07-35.34-6.07s-24.64,2.1-35.34,6.07c-10.62,3.94-19.61,9.65-25.97,16.52-2.83,3.06-5.11,6.31-6.84,9.72,13.83-3.34,37.49-7.76,59.46-8.22,2.12-.05,3.58.63,4.54,1.85,1.17,1.48,1.08,6.77,1.05,9.13l-.62,61.1c1.24.04,2.48.07,3.73.07s2.5-.03,3.74-.07l-.63-61.1c-.03-2.36-.12-7.65,1.05-9.13.96-1.22,2.42-1.89,4.54-1.85,21.96.46,45.61,4.88,59.44,8.22"/>
        <path class="cls-1" d="M270.87,40.24c-20.24-4.58-33.76-5.42-47.1-6.16-11.62-.64-11.77,3.51-10.61,11.44.07.48.17,1.09.28,1.79,3.9,23.09,8.75,42.96,9.59,46.33,28.35-6.47,48.79-24.44,48.79-45.53,0-2.66-.32-5.29-.94-7.87"/>
        <path class="cls-1" d="M186.41,45.52c1.16-7.93,1.01-12.08-10.61-11.44-13.35.74-26.87,1.58-47.12,6.16-.62,2.58-.94,5.21-.94,7.87,0,9.12,3.71,17.94,10.73,25.52,6.36,6.87,15.34,12.58,25.97,16.52,3.85,1.43,7.91,2.59,12.09,3.53.79-3.16,5.75-23.44,9.7-46.95.07-.45.13-.87.18-1.21"/>
      </g>
      <g>
        <g>
          <polyline class="cls-1" points="0 225.75 32.69 225.75 32.69 235.7 23.31 235.7 23.31 259.6 9.69 259.6 9.69 235.7 0 235.7 0 225.75"/>
          <polyline class="cls-1" points="49.24 239.43 42.36 259.6 29.28 259.6 42.11 225.75 56.31 225.75 69.45 259.6 56.21 259.6 49.24 239.43"/>
          <polyline class="cls-1" points="66.33 225.75 99.02 225.75 99.02 235.7 89.64 235.7 89.64 259.6 76.02 259.6 76.02 235.7 66.33 235.7 66.33 225.75"/>
          <polyline class="cls-1" points="115.57 239.43 108.69 259.6 95.61 259.6 108.44 225.75 122.64 225.75 135.78 259.6 122.54 259.6 115.57 239.43"/>
        </g>
        <g>
          <path class="cls-2" d="M159.48,223.26c2.4-.44,5.74-.76,10.27-.76,4.92,0,8.52,1.04,10.87,3,2.19,1.8,3.61,4.7,3.61,8.14s-1.09,6.39-3.17,8.36c-2.68,2.68-6.88,3.93-11.64,3.93-1.26,0-2.4-.05-3.28-.22v13.88h-6.67v-36.34ZM166.14,240.42c.82.22,1.91.27,3.28.27,5.03,0,8.09-2.46,8.09-6.78s-2.84-6.28-7.49-6.28c-1.86,0-3.17.16-3.88.33v12.46Z"/>
          <path class="cls-2" d="M190.56,223.26c2.51-.44,6.28-.76,10.16-.76,5.3,0,8.91.87,11.37,2.95,2.02,1.69,3.17,4.26,3.17,7.38,0,4.75-3.22,7.98-6.67,9.23v.16c2.62.98,4.21,3.55,5.14,7.1,1.15,4.59,2.13,8.85,2.9,10.27h-6.94c-.55-1.09-1.42-4.1-2.46-8.69-1.04-4.81-2.79-6.34-6.61-6.45h-3.39v15.14h-6.67v-36.34ZM197.23,239.54h3.99c4.54,0,7.38-2.4,7.38-6.07,0-4.04-2.84-5.9-7.21-5.9-2.13,0-3.5.16-4.15.33v11.64Z"/>
          <path class="cls-2" d="M254.87,240.8c0,12.35-7.49,19.4-17.65,19.4s-16.94-7.92-16.94-18.74,7.1-19.29,17.49-19.29,17.1,8.14,17.1,18.63ZM227.39,241.35c0,7.49,3.77,13.44,10.22,13.44s10.16-6.01,10.16-13.71c0-6.94-3.44-13.5-10.16-13.5s-10.22,6.17-10.22,13.77Z"/>
          <path class="cls-2" d="M268.53,222.77h6.72v23.88c0,10.16-4.92,13.55-12.24,13.55-1.86,0-4.21-.33-5.63-.87l.82-5.41c1.09.33,2.57.66,4.15.66,3.82,0,6.17-1.75,6.17-8.14v-23.66Z"/>
          <path class="cls-2" d="M303.77,243.26h-13.88v10.82h15.52v5.52h-22.24v-36.83h21.42v5.52h-14.7v9.51h13.88v5.46Z"/>
          <path class="cls-2" d="M338.25,258.5c-1.58.82-5.08,1.64-9.51,1.64-11.69,0-18.8-7.32-18.8-18.52,0-12.13,8.42-19.45,19.67-19.45,4.43,0,7.6.93,8.96,1.64l-1.48,5.35c-1.75-.76-4.15-1.42-7.21-1.42-7.49,0-12.9,4.7-12.9,13.55,0,8.09,4.75,13.28,12.84,13.28,2.73,0,5.57-.55,7.32-1.37l1.09,5.3Z"/>
          <path class="cls-2" d="M352.67,228.4h-10.49v-5.63h27.81v5.63h-10.6v31.2h-6.72v-31.2Z"/>
          <path class="cls-2" d="M374.25,252.27c2.19,1.26,5.46,2.35,8.91,2.35,4.32,0,6.72-2.02,6.72-5.03,0-2.79-1.86-4.43-6.56-6.12-6.07-2.19-9.94-5.41-9.94-10.71,0-6.01,5.03-10.6,13-10.6,3.99,0,6.94.87,8.85,1.86l-1.64,5.41c-1.31-.71-3.88-1.75-7.32-1.75-4.26,0-6.12,2.29-6.12,4.43,0,2.84,2.13,4.15,7.05,6.06,6.39,2.4,9.51,5.63,9.51,10.93,0,5.9-4.48,11.04-13.99,11.04-3.88,0-7.92-1.09-9.95-2.29l1.48-5.57Z"/>
        </g>
      </g>
    </g>
  </g>
</svg>