<?xml version="1.0" encoding="UTF-8"?>
<svg id="Layer_2" data-name="Layer 2" xmlns="http://www.w3.org/2000/svg" viewBox="0 0 399.68 133.12">
  <defs>
    <style>
      .cls-1 {
        fill: #221f20;
      }

      .cls-1, .cls-2 {
        stroke-width: 0px;
      }

      .cls-2 {
        fill: #e2ae3d;
      }
    </style>
  </defs>
  <g id="Layer_1-2" data-name="Layer 1">
    <g>
      <path class="cls-1" d="m272.8,113.08c-.76.15-2.11.4-3.31.4-4.11,0-6.43-1.73-6.43-6.43s3.09-6.61,6.98-6.61c1.2,0,2,.22,2.62.4v2.31c-.45-.13-1.72-.35-2.67-.35-2.25,0-4.04.35-4.04,4.16s1.85,4.18,3.89,4.18c1.09,0,1.98-.22,2.96-.42v2.36Zm11.56-6.14c0-3.38-1.11-4.42-2.91-4.42s-2.94,1.22-3,4.42c-.05,3.2,1.11,4.43,2.94,4.43s2.96-1.05,2.96-4.43h0Zm-8.79.02c0-4.83,2.34-6.52,5.87-6.52s5.81,1.8,5.81,6.52-2.31,6.52-5.85,6.52-5.83-1.76-5.83-6.52m18.79-.24c1.35,0,2.54-.4,2.54-2.02s-.94-1.87-2.51-1.87h-.89v3.89h.85Zm-3.59-6.11h3.52c3.89,0,5.49,1.04,5.49,3.98,0,2.4-1.23,3.04-2.69,3.47v.22l.38.07c1.33.49,2.11,3.02,2.92,4.6v.34h-3.04c-.6-1.69-1.24-4.25-2.51-4.61h-1.34v4.61h-2.74v-12.68Zm15.61,6.38h1c1.6,0,2.4-.51,2.4-2.09s-.8-2.05-2.27-2.05h-1.13v4.14Zm-2.74-6.38h3.45c3.74,0,5.56.85,5.56,4.11s-2.16,4.2-4.89,4.2h-1.38v4.38h-2.74v-12.68Zm20.17,6.32c0-3.38-1.11-4.42-2.91-4.42s-2.94,1.22-3,4.42c-.05,3.2,1.11,4.43,2.95,4.43s2.96-1.05,2.96-4.43h0Zm-8.79.02c0-4.83,2.34-6.52,5.87-6.52s5.81,1.8,5.81,6.52-2.31,6.52-5.85,6.52-5.83-1.76-5.83-6.52m18.79-.24c1.35,0,2.54-.4,2.54-2.02s-.94-1.87-2.51-1.87h-.89v3.89h.85Zm-3.59-6.11h3.52c3.89,0,5.49,1.04,5.49,3.98,0,2.4-1.24,3.04-2.69,3.47v.22l.38.07c1.33.49,2.11,3.02,2.92,4.6v.34h-3.04c-.6-1.69-1.24-4.25-2.51-4.61h-1.34v4.61h-2.74v-12.68Zm19.15,8.01l-1.27-4.38-.15-.71h-.18l-.15.71-1.33,4.38h3.07Zm-7.36,4.38l4.53-12.48h2.69l4.74,12.48v.29h-3.04l-1.05-2.83h-3.98l-.93,2.83h-2.96v-.29Zm16.63-10.21l-3.56.09v-2.27h9.89v2.27l-3.58-.09v10.5h-2.74v-10.5Zm9.23,10.5v-12.68h2.74v12.68h-2.74Zm14.79-6.36c0-3.38-1.11-4.42-2.91-4.42s-2.94,1.22-3,4.42c-.05,3.2,1.11,4.43,2.94,4.43s2.96-1.05,2.96-4.43Zm-8.79.02c0-4.83,2.34-6.52,5.87-6.52s5.81,1.8,5.81,6.52-2.31,6.52-5.85,6.52-5.83-1.76-5.83-6.52m15.19-6.34h2.39l4.69,6.67.65,1.09h.17v-7.76h2.74v12.68h-2.34l-4.82-6.92-.55-.93h-.2v7.85h-2.74v-12.68ZM94.25,14.42l-20.55,75.1h-11.94l-14.53-54.55-14.74,54.55h-11.94L0,14.42h11.84l14.63,54.55,14.74-54.55h11.73l14.85,54.55,14.63-54.55h11.83Zm5.48.22l11.84-.97v18.4l-.22,6.89h.43c5.49-2.04,9.9-3.01,15.28-3.01,9.58,0,16.03,4.31,16.03,20.77v32.82h-11.84v-31.85c0-9.9-4.84-11.19-10.33-11.19-3.44,0-6.35.75-9.36,1.61v41.42h-11.84V14.63Zm53.69,22.06h11.84v52.83h-11.84v-52.83Zm5.92-21.3c6.13,0,7.1,3.55,7.1,7.53s-1.29,7.64-7.1,7.64-6.99-3.66-6.99-7.64,1.08-7.53,6.99-7.53m15.92,21.3h8.07l1.61,4.3h.75c3.12-2.69,8.07-5.06,14.52-5.06.75,0,1.61,0,2.47.11v11.62c-2.15-.32-4.41-.64-6.67-.64-3.23,0-5.81.75-8.93,2.15v40.35h-11.84v-52.83Zm32.49,52.83V14.63l11.84-.97v75.85h-11.84Zm107.16-26.15c0-10-1.62-18.18-11.08-18.18s-11.94,7.85-11.94,18.18c0,9.58,1.94,17.86,11.41,17.86s11.62-7.85,11.62-17.86h0Zm-11.19-27.44c16.78,0,23.24,9.9,23.24,27.44,0,16.46-6.03,27.22-23.46,27.22s-23.56-10.76-23.56-27.22c0-17.54,6.99-27.44,23.78-27.44m64.26,27.44c0-10-1.61-18.18-11.08-18.18s-11.95,7.85-11.95,18.18c0,9.58,1.94,17.86,11.41,17.86s11.62-7.85,11.62-17.86h0Zm-11.19-27.44c16.78,0,23.24,9.9,23.24,27.44,0,16.46-6.03,27.22-23.46,27.22s-23.57-10.76-23.57-27.22c0-17.54,6.99-27.44,23.78-27.44m30.9,53.58V14.63l11.84-.97v75.85h-11.84Zm-146.58-9.79c3.33.1,5.16.21,8.61.21,7.31,0,12.16-3.87,12.16-19.26,0-10.54-4.31-13.34-12.05-13.34-3.01,0-5.81.53-8.71,1.5v30.88Zm-11.84-43.04h8.93l.97,3.87c3.55-1.94,10.11-4.63,16.03-4.63,10.76,0,18.61,7.85,18.61,26.68s-8.29,27.65-22.05,27.65c-5.07,0-10.65-1.08-10.65-1.08v24.21l-11.84,1.29V36.69Z"/>
      <path class="cls-2" d="m287.85,4.23c-8.85-10.25-36.93-1.24-68.27,20.45v5.47c27.6-19.62,51.93-28.67,58.9-20.6,8.7,10.08-12.94,43.06-48.35,73.61-35.41,30.56-71.18,47.12-79.88,37.04-4.52-5.24-.83-16.65,8.7-30.68h-5.54c-11.8,17.6-16.23,32.39-10.17,39.42,11.05,12.8,52.38-4.71,92.3-39.16,39.92-34.45,63.36-72.74,52.31-85.54"/>
    </g>
  </g>
</svg>